<svg id="svg" version="1.1" xmlns="http://www.w3.org/2000/svg" style="display: block;" viewBox="0 0 263 263"><path d="M0 0 C86.79 0 173.58 0 263 0 C263 86.79 263 173.58 263 263 C176.21 263 89.42 263 0 263 C0 176.21 0 89.42 0 0 Z " transform="translate(0,0)" style="fill: #242424;"/><path d="M0 0 C41.58 0 83.16 0 126 0 C126 2.31 126 4.62 126 7 C128.31 7 130.62 7 133 7 C133 13.93 133 20.86 133 28 C135.31 28 137.62 28 140 28 C140 32.62 140 37.24 140 42 C135.38 42 130.76 42 126 42 C126 44.31 126 46.62 126 49 C119.07 49 112.14 49 105 49 C105 51.31 105 53.62 105 56 C100.38 56 95.76 56 91 56 C91 53.69 91 51.38 91 49 C79.45 49 67.9 49 56 49 C56 51.31 56 53.62 56 56 C46.76 56 37.52 56 28 56 C28 58.31 28 60.62 28 63 C37.24 63 46.48 63 56 63 C56 67.62 56 72.24 56 77 C67.55 77 79.1 77 91 77 C91 72.38 91 67.76 91 63 C95.62 63 100.24 63 105 63 C105 67.62 105 72.24 105 77 C111.93 77 118.86 77 126 77 C126 93.17 126 109.34 126 126 C114.45 126 102.9 126 91 126 C91 142.17 91 158.34 91 175 C88.69 175 86.38 175 84 175 C84 181.93 84 188.86 84 196 C81.69 196 79.38 196 77 196 C77 198.31 77 200.62 77 203 C72.38 203 67.76 203 63 203 C63 200.69 63 198.38 63 196 C56.07 196 49.14 196 42 196 C42 193.69 42 191.38 42 189 C37.38 189 32.76 189 28 189 C28 186.69 28 184.38 28 182 C23.38 182 18.76 182 14 182 C14 179.69 14 177.38 14 175 C11.69 175 9.38 175 7 175 C7 172.69 7 170.38 7 168 C4.69 168 2.38 168 0 168 C0 165.69 0 163.38 0 161 C-2.31 161 -4.62 161 -7 161 C-7 140.21 -7 119.42 -7 98 C-9.31 98 -11.62 98 -14 98 C-14 95.69 -14 93.38 -14 91 C-11.69 91 -9.38 91 -7 91 C-7 88.69 -7 86.38 -7 84 C-9.31 84 -11.62 84 -14 84 C-14 81.69 -14 79.38 -14 77 C-11.69 77 -9.38 77 -7 77 C-7 67.76 -7 58.52 -7 49 C-9.31 49 -11.62 49 -14 49 C-14 39.76 -14 30.52 -14 21 C-11.69 21 -9.38 21 -7 21 C-7 16.38 -7 11.76 -7 7 C-4.69 7 -2.38 7 0 7 C0 4.69 0 2.38 0 0 Z " transform="translate(88,12)" style="fill: #D5BF9A;"/><path d="M0 0 C4.62 0 9.24 0 14 0 C14 2.31 14 4.62 14 7 C11.69 7 9.38 7 7 7 C7 9.31 7 11.62 7 14 C9.31 14 11.62 14 14 14 C14 34.79 14 55.58 14 77 C16.31 77 18.62 77 21 77 C21 79.31 21 81.62 21 84 C23.31 84 25.62 84 28 84 C28 86.31 28 88.62 28 91 C30.31 91 32.62 91 35 91 C35 93.31 35 95.62 35 98 C39.62 98 44.24 98 49 98 C49 100.31 49 102.62 49 105 C53.62 105 58.24 105 63 105 C63 107.31 63 109.62 63 112 C56.07 112 49.14 112 42 112 C42 109.69 42 107.38 42 105 C39.69 105 37.38 105 35 105 C35 107.31 35 109.62 35 112 C32.69 112 30.38 112 28 112 C28 114.31 28 116.62 28 119 C39.55 119 51.1 119 63 119 C63 121.31 63 123.62 63 126 C72.24 126 81.48 126 91 126 C91 128.31 91 130.62 91 133 C95.62 133 100.24 133 105 133 C105 130.69 105 128.38 105 126 C107.31 126 109.62 126 112 126 C112 123.69 112 121.38 112 119 C114.31 119 116.62 119 119 119 C119 114.38 119 109.76 119 105 C121.31 105 123.62 105 126 105 C126 107.31 126 109.62 126 112 C128.31 112 130.62 112 133 112 C133 109.69 133 107.38 133 105 C135.31 105 137.62 105 140 105 C140 102.69 140 100.38 140 98 C142.31 98 144.62 98 147 98 C147 93.38 147 88.76 147 84 C151.62 84 156.24 84 161 84 C161 88.62 161 93.24 161 98 C167.93 98 174.86 98 182 98 C182 107.24 182 116.48 182 126 C179.69 126 177.38 126 175 126 C175 128.31 175 130.62 175 133 C170.38 133 165.76 133 161 133 C161 135.31 161 137.62 161 140 C165.62 140 170.24 140 175 140 C175 148.58 175 157.16 175 166 C163.45 166 151.9 166 140 166 C140 157.42 140 148.84 140 140 C137.69 140 135.38 140 133 140 C133 142.31 133 144.62 133 147 C130.69 147 128.38 147 126 147 C126 153.27 126 159.54 126 166 C89.04 166 52.08 166 14 166 C14 159.73 14 153.46 14 147 C11.69 147 9.38 147 7 147 C7 144.69 7 142.38 7 140 C4.69 140 2.38 140 0 140 C0 142.31 0 144.62 0 147 C-2.31 147 -4.62 147 -7 147 C-7 149.31 -7 151.62 -7 154 C-4.69 154 -2.38 154 0 154 C0 157.96 0 161.92 0 166 C-16.17 166 -32.34 166 -49 166 C-49 164.35 -49 162.7 -49 161 C-46.69 161 -44.38 161 -42 161 C-42 156.38 -42 151.76 -42 147 C-44.31 147 -46.62 147 -49 147 C-49 144.69 -49 142.38 -49 140 C-46.69 140 -44.38 140 -42 140 C-42 137.69 -42 135.38 -42 133 C-44.31 133 -46.62 133 -49 133 C-49 130.69 -49 128.38 -49 126 C-51.31 126 -53.62 126 -56 126 C-56 116.76 -56 107.52 -56 98 C-49.07 98 -42.14 98 -35 98 C-35 93.38 -35 88.76 -35 84 C-28.07 84 -21.14 84 -14 84 C-14 86.31 -14 88.62 -14 91 C-11.69 91 -9.38 91 -7 91 C-7 86.38 -7 81.76 -7 77 C-9.31 77 -11.62 77 -14 77 C-14 72.38 -14 67.76 -14 63 C-16.31 63 -18.62 63 -21 63 C-21 51.45 -21 39.9 -21 28 C-18.69 28 -16.38 28 -14 28 C-14 23.38 -14 18.76 -14 14 C-11.69 14 -9.38 14 -7 14 C-7 11.69 -7 9.38 -7 7 C-4.69 7 -2.38 7 0 7 C0 4.69 0 2.38 0 0 Z " transform="translate(67,96)" style="fill: #545454;"/><path d="M0 0 C41.58 0 83.16 0 126 0 C126 2.31 126 4.62 126 7 C128.31 7 130.62 7 133 7 C133 13.93 133 20.86 133 28 C135.31 28 137.62 28 140 28 C140 32.62 140 37.24 140 42 C135.38 42 130.76 42 126 42 C126 44.31 126 46.62 126 49 C119.07 49 112.14 49 105 49 C105 51.31 105 53.62 105 56 C100.38 56 95.76 56 91 56 C91 53.69 91 51.38 91 49 C79.45 49 67.9 49 56 49 C56 51.31 56 53.62 56 56 C46.76 56 37.52 56 28 56 C28 58.31 28 60.62 28 63 C25.69 63 23.38 63 21 63 C21 60.69 21 58.38 21 56 C18.69 56 16.38 56 14 56 C14 69.86 14 83.72 14 98 C4.76 98 -4.48 98 -14 98 C-14 95.69 -14 93.38 -14 91 C-11.69 91 -9.38 91 -7 91 C-7 88.69 -7 86.38 -7 84 C-9.31 84 -11.62 84 -14 84 C-14 81.69 -14 79.38 -14 77 C-11.69 77 -9.38 77 -7 77 C-7 67.76 -7 58.52 -7 49 C-9.31 49 -11.62 49 -14 49 C-14 39.76 -14 30.52 -14 21 C-11.69 21 -9.38 21 -7 21 C-7 16.38 -7 11.76 -7 7 C-4.69 7 -2.38 7 0 7 C0 4.69 0 2.38 0 0 Z " transform="translate(88,12)" style="fill: #F9E48B;"/><path d="M0 0 C4.62 0 9.24 0 14 0 C14 2.31 14 4.62 14 7 C11.69 7 9.38 7 7 7 C7 9.31 7 11.62 7 14 C9.31 14 11.62 14 14 14 C14 34.79 14 55.58 14 77 C16.31 77 18.62 77 21 77 C21 79.31 21 81.62 21 84 C23.31 84 25.62 84 28 84 C28 86.31 28 88.62 28 91 C30.31 91 32.62 91 35 91 C35 93.31 35 95.62 35 98 C39.62 98 44.24 98 49 98 C49 100.31 49 102.62 49 105 C53.62 105 58.24 105 63 105 C63 107.31 63 109.62 63 112 C56.07 112 49.14 112 42 112 C42 109.69 42 107.38 42 105 C39.69 105 37.38 105 35 105 C35 107.31 35 109.62 35 112 C28.07 112 21.14 112 14 112 C14 109.69 14 107.38 14 105 C11.69 105 9.38 105 7 105 C7 102.69 7 100.38 7 98 C2.38 98 -2.24 98 -7 98 C-7 91.07 -7 84.14 -7 77 C-9.31 77 -11.62 77 -14 77 C-14 72.38 -14 67.76 -14 63 C-16.31 63 -18.62 63 -21 63 C-21 51.45 -21 39.9 -21 28 C-18.69 28 -16.38 28 -14 28 C-14 23.38 -14 18.76 -14 14 C-11.69 14 -9.38 14 -7 14 C-7 11.69 -7 9.38 -7 7 C-4.69 7 -2.38 7 0 7 C0 4.69 0 2.38 0 0 Z " transform="translate(67,96)" style="fill: #484848;"/><path d="M0 0 C4.62 0 9.24 0 14 0 C14 2.31 14 4.62 14 7 C16.31 7 18.62 7 21 7 C21 11.62 21 16.24 21 21 C23.31 21 25.62 21 28 21 C28 34.86 28 48.72 28 63 C25.69 63 23.38 63 21 63 C21 65.31 21 67.62 21 70 C18.69 70 16.38 70 14 70 C14 67.69 14 65.38 14 63 C11.69 63 9.38 63 7 63 C7 67.62 7 72.24 7 77 C4.69 77 2.38 77 0 77 C0 79.31 0 81.62 0 84 C-2.31 84 -4.62 84 -7 84 C-7 86.31 -7 88.62 -7 91 C-11.62 91 -16.24 91 -21 91 C-21 88.69 -21 86.38 -21 84 C-30.24 84 -39.48 84 -49 84 C-49 81.69 -49 79.38 -49 77 C-60.55 77 -72.1 77 -84 77 C-84 74.69 -84 72.38 -84 70 C-81.69 70 -79.38 70 -77 70 C-77 67.69 -77 65.38 -77 63 C-74.69 63 -72.38 63 -70 63 C-70 65.31 -70 67.62 -70 70 C-56.14 70 -42.28 70 -28 70 C-28 72.31 -28 74.62 -28 77 C-23.38 77 -18.76 77 -14 77 C-14 74.69 -14 72.38 -14 70 C-11.69 70 -9.38 70 -7 70 C-7 63.07 -7 56.14 -7 49 C-4.69 49 -2.38 49 0 49 C0 32.83 0 16.66 0 0 Z " transform="translate(179,138)" style="fill: #141414;"/><path d="M0 0 C20.79 0 41.58 0 63 0 C63 13.86 63 27.72 63 42 C42.21 42 21.42 42 0 42 C0 28.14 0 14.28 0 0 Z " transform="translate(116,138)" style="fill: #AC9A7C;"/><path d="M0 0 C4.62 0 9.24 0 14 0 C14 2.31 14 4.62 14 7 C11.69 7 9.38 7 7 7 C7 9.31 7 11.62 7 14 C4.69 14 2.38 14 0 14 C0 18.62 0 23.24 0 28 C-2.31 28 -4.62 28 -7 28 C-7 39.55 -7 51.1 -7 63 C-4.69 63 -2.38 63 0 63 C0 67.62 0 72.24 0 77 C2.31 77 4.62 77 7 77 C7 81.62 7 86.24 7 91 C2.38 91 -2.24 91 -7 91 C-7 86.38 -7 81.76 -7 77 C-9.31 77 -11.62 77 -14 77 C-14 72.38 -14 67.76 -14 63 C-16.31 63 -18.62 63 -21 63 C-21 51.45 -21 39.9 -21 28 C-18.69 28 -16.38 28 -14 28 C-14 23.38 -14 18.76 -14 14 C-11.69 14 -9.38 14 -7 14 C-7 11.69 -7 9.38 -7 7 C-4.69 7 -2.38 7 0 7 C0 4.69 0 2.38 0 0 Z " transform="translate(67,96)" style="fill: #545454;"/><path d="M0 0 C4.62 0 9.24 0 14 0 C14 4.62 14 9.24 14 14 C37.1 14 60.2 14 84 14 C84 16.31 84 18.62 84 21 C77.07 21 70.14 21 63 21 C63 23.31 63 25.62 63 28 C58.38 28 53.76 28 49 28 C49 25.69 49 23.38 49 21 C37.45 21 25.9 21 14 21 C14 23.31 14 25.62 14 28 C4.76 28 -4.48 28 -14 28 C-14 21.07 -14 14.14 -14 7 C-9.38 7 -4.76 7 0 7 C0 4.69 0 2.38 0 0 Z " transform="translate(130,40)" style="fill: #D5BF9A;"/><path d="M0 0 C4.62 0 9.24 0 14 0 C14 2.31 14 4.62 14 7 C16.31 7 18.62 7 21 7 C21 11.62 21 16.24 21 21 C18.69 21 16.38 21 14 21 C14 30.24 14 39.48 14 49 C11.69 49 9.38 49 7 49 C7 51.31 7 53.62 7 56 C4.69 56 2.38 56 0 56 C0 60.62 0 65.24 0 70 C-2.31 70 -4.62 70 -7 70 C-7 63.07 -7 56.14 -7 49 C-4.69 49 -2.38 49 0 49 C0 32.83 0 16.66 0 0 Z " transform="translate(179,138)" style="fill: #474747;"/><path d="M0 0 C2.31 0 4.62 0 7 0 C7 4.62 7 9.24 7 14 C9.31 14 11.62 14 14 14 C14 16.31 14 18.62 14 21 C16.31 21 18.62 21 21 21 C21 23.31 21 25.62 21 28 C18.69 28 16.38 28 14 28 C14 30.31 14 32.62 14 35 C16.31 35 18.62 35 21 35 C21 39.62 21 44.24 21 49 C18.69 49 16.38 49 14 49 C14 50.65 14 52.3 14 54 C9.38 54 4.76 54 0 54 C0 36.18 0 18.36 0 0 Z " transform="translate(4,208)" style="fill: #141414;"/><path d="M0 0 C2.31 0 4.62 0 7 0 C7 17.82 7 35.64 7 54 C2.38 54 -2.24 54 -7 54 C-7 45.42 -7 36.84 -7 28 C-11.62 28 -16.24 28 -21 28 C-21 25.69 -21 23.38 -21 21 C-16.38 21 -11.76 21 -7 21 C-7 18.69 -7 16.38 -7 14 C-4.69 14 -2.38 14 0 14 C0 9.38 0 4.76 0 0 Z " transform="translate(249,208)" style="fill: #141414;"/><path d="M0 0 C11.55 0 23.1 0 35 0 C35 2.31 35 4.62 35 7 C37.31 7 39.62 7 42 7 C42 11.62 42 16.24 42 21 C39.69 21 37.38 21 35 21 C35 18.69 35 16.38 35 14 C23.45 14 11.9 14 0 14 C0 16.31 0 18.62 0 21 C-2.31 21 -4.62 21 -7 21 C-7 16.38 -7 11.76 -7 7 C-4.69 7 -2.38 7 0 7 C0 4.69 0 2.38 0 0 Z " transform="translate(158,96)" style="fill: #875D46;"/><path d="M0 0 C2.31 0 4.62 0 7 0 C7 2.31 7 4.62 7 7 C20.86 7 34.72 7 49 7 C49 11.62 49 16.24 49 21 C42.07 21 35.14 21 28 21 C28 18.69 28 16.38 28 14 C16.45 14 4.9 14 -7 14 C-7 11.69 -7 9.38 -7 7 C-4.69 7 -2.38 7 0 7 C0 4.69 0 2.38 0 0 Z " transform="translate(102,201)" style="fill: #141414;"/><path d="M0 0 C2.31 0 4.62 0 7 0 C7 11.55 7 23.1 7 35 C9.31 35 11.62 35 14 35 C14 39.62 14 44.24 14 49 C16.31 49 18.62 49 21 49 C21 53.62 21 58.24 21 63 C18.69 63 16.38 63 14 63 C14 60.69 14 58.38 14 56 C11.69 56 9.38 56 7 56 C7 51.38 7 46.76 7 42 C4.69 42 2.38 42 0 42 C0 28.14 0 14.28 0 0 Z " transform="translate(39,124)" style="fill: #141414;"/><path d="M0 0 C4.62 0 9.24 0 14 0 C14 4.62 14 9.24 14 14 C16.31 14 18.62 14 21 14 C21 27.86 21 41.72 21 56 C18.69 56 16.38 56 14 56 C14 44.45 14 32.9 14 21 C11.69 21 9.38 21 7 21 C7 16.38 7 11.76 7 7 C4.69 7 2.38 7 0 7 C0 4.69 0 2.38 0 0 Z " transform="translate(193,138)" style="fill: #141414;"/><path d="M0 0 C4.62 0 9.24 0 14 0 C14 2.31 14 4.62 14 7 C16.31 7 18.62 7 21 7 C21 4.69 21 2.38 21 0 C25.62 0 30.24 0 35 0 C35 3.96 35 7.92 35 12 C21.14 12 7.28 12 -7 12 C-7 10.35 -7 8.7 -7 7 C-4.69 7 -2.38 7 0 7 C0 4.69 0 2.38 0 0 Z " transform="translate(123,250)" style="fill: #8900D3;"/><path d="M0 0 C2.31 0 4.62 0 7 0 C7 2.31 7 4.62 7 7 C9.31 7 11.62 7 14 7 C14 13.27 14 19.54 14 26 C9.38 26 4.76 26 0 26 C0 22.04 0 18.08 0 14 C-2.31 14 -4.62 14 -7 14 C-7 11.69 -7 9.38 -7 7 C-4.69 7 -2.38 7 0 7 C0 4.69 0 2.38 0 0 Z " transform="translate(67,236)" style="fill: #141414;"/><path d="M0 0 C2.31 0 4.62 0 7 0 C7 8.58 7 17.16 7 26 C2.38 26 -2.24 26 -7 26 C-7 19.73 -7 13.46 -7 7 C-4.69 7 -2.38 7 0 7 C0 4.69 0 2.38 0 0 Z " transform="translate(200,236)" style="fill: #141414;"/><path d="M0 0 C2.31 0 4.62 0 7 0 C7 6.93 7 13.86 7 21 C2.38 21 -2.24 21 -7 21 C-7 18.69 -7 16.38 -7 14 C-9.31 14 -11.62 14 -14 14 C-14 11.69 -14 9.38 -14 7 C-9.38 7 -4.76 7 0 7 C0 4.69 0 2.38 0 0 Z " transform="translate(165,208)" style="fill: #484848;"/><path d="M0 0 C6.93 0 13.86 0 21 0 C21 4.62 21 9.24 21 14 C14.07 14 7.14 14 0 14 C0 9.38 0 4.76 0 0 Z " transform="translate(151,68)" style="fill: #DAECB3;"/><path d="M0 0 C4.62 0 9.24 0 14 0 C14 2.31 14 4.62 14 7 C18.62 7 23.24 7 28 7 C28 9.31 28 11.62 28 14 C21.07 14 14.14 14 7 14 C7 11.69 7 9.38 7 7 C4.69 7 2.38 7 0 7 C0 4.69 0 2.38 0 0 Z " transform="translate(102,194)" style="fill: #474747;"/><path d="M0 0 C2.31 0 4.62 0 7 0 C7 11.55 7 23.1 7 35 C4.69 35 2.38 35 0 35 C0 23.45 0 11.9 0 0 Z " transform="translate(200,159)" style="fill: #545454;"/><path d="M0 0 C4.62 0 9.24 0 14 0 C14 4.62 14 9.24 14 14 C9.38 14 4.76 14 0 14 C0 9.38 0 4.76 0 0 Z " transform="translate(200,68)" style="fill: #DAECB3;"/><path d="M0 0 C4.62 0 9.24 0 14 0 C14 2.31 14 4.62 14 7 C16.31 7 18.62 7 21 7 C21 9.31 21 11.62 21 14 C16.38 14 11.76 14 7 14 C7 11.69 7 9.38 7 7 C4.69 7 2.38 7 0 7 C0 4.69 0 2.38 0 0 Z " transform="translate(88,19)" style="fill: #F9F665;"/><path d="M0 0 C6.93 0 13.86 0 21 0 C21 2.31 21 4.62 21 7 C14.07 7 7.14 7 0 7 C0 4.69 0 2.38 0 0 Z " transform="translate(32,250)" style="fill: #141415;"/><path d="M0 0 C6.93 0 13.86 0 21 0 C21 2.31 21 4.62 21 7 C14.07 7 7.14 7 0 7 C0 4.69 0 2.38 0 0 Z " transform="translate(32,229)" style="fill: #141414;"/><path d="M0 0 C6.93 0 13.86 0 21 0 C21 2.31 21 4.62 21 7 C14.07 7 7.14 7 0 7 C0 4.69 0 2.38 0 0 Z " transform="translate(130,215)" style="fill: #141414;"/><path d="M0 0 C6.93 0 13.86 0 21 0 C21 2.31 21 4.62 21 7 C14.07 7 7.14 7 0 7 C0 4.69 0 2.38 0 0 Z " transform="translate(130,208)" style="fill: #484848;"/><path d="M0 0 C4.62 0 9.24 0 14 0 C14 2.31 14 4.62 14 7 C11.69 7 9.38 7 7 7 C7 9.31 7 11.62 7 14 C4.69 14 2.38 14 0 14 C0 9.38 0 4.76 0 0 Z " transform="translate(221,201)" style="fill: #141414;"/><path d="M0 0 C2.31 0 4.62 0 7 0 C7 2.31 7 4.62 7 7 C9.31 7 11.62 7 14 7 C14 9.31 14 11.62 14 14 C9.38 14 4.76 14 0 14 C0 9.38 0 4.76 0 0 Z " transform="translate(81,40)" style="fill: #F9F665;"/><path d="M0 0 C4.62 0 9.24 0 14 0 C14 2.31 14 4.62 14 7 C9.38 7 4.76 7 0 7 C0 4.69 0 2.38 0 0 Z " transform="translate(221,250)" style="fill: #141414;"/><path d="M0 0 C4.62 0 9.24 0 14 0 C14 2.31 14 4.62 14 7 C9.38 7 4.76 7 0 7 C0 4.69 0 2.38 0 0 Z " transform="translate(158,222)" style="fill: #141414;"/><path d="M0 0 C4.62 0 9.24 0 14 0 C14 2.31 14 4.62 14 7 C9.38 7 4.76 7 0 7 C0 4.69 0 2.38 0 0 Z " transform="translate(32,215)" style="fill: #141414;"/><path d="M0 0 C4.62 0 9.24 0 14 0 C14 2.31 14 4.62 14 7 C9.38 7 4.76 7 0 7 C0 4.69 0 2.38 0 0 Z " transform="translate(81,201)" style="fill: #141414;"/><path d="M0 0 C4.62 0 9.24 0 14 0 C14 2.31 14 4.62 14 7 C9.38 7 4.76 7 0 7 C0 4.69 0 2.38 0 0 Z " transform="translate(81,194)" style="fill: #545454;"/><path d="M0 0 C4.62 0 9.24 0 14 0 C14 2.31 14 4.62 14 7 C9.38 7 4.76 7 0 7 C0 4.69 0 2.38 0 0 Z " transform="translate(228,187)" style="fill: #141414;"/><path d="M0 0 C4.62 0 9.24 0 14 0 C14 2.31 14 4.62 14 7 C9.38 7 4.76 7 0 7 C0 4.69 0 2.38 0 0 Z " transform="translate(60,187)" style="fill: #141414;"/><path d="M0 0 C4.62 0 9.24 0 14 0 C14 2.31 14 4.62 14 7 C9.38 7 4.76 7 0 7 C0 4.69 0 2.38 0 0 Z " transform="translate(18,187)" style="fill: #141414;"/><path d="M0 0 C2.31 0 4.62 0 7 0 C7 4.62 7 9.24 7 14 C4.69 14 2.38 14 0 14 C0 9.38 0 4.76 0 0 Z " transform="translate(193,145)" style="fill: #545454;"/><path d="M0 0 C2.31 0 4.62 0 7 0 C7 4.62 7 9.24 7 14 C4.69 14 2.38 14 0 14 C0 9.38 0 4.76 0 0 Z " transform="translate(46,110)" style="fill: #141414;"/><path d="M0 0 C4.62 0 9.24 0 14 0 C14 2.31 14 4.62 14 7 C9.38 7 4.76 7 0 7 C0 4.69 0 2.38 0 0 Z " transform="translate(81,96)" style="fill: #F9F665;"/><path d="M0 0 C4.62 0 9.24 0 14 0 C14 2.31 14 4.62 14 7 C9.38 7 4.76 7 0 7 C0 4.69 0 2.38 0 0 Z " transform="translate(81,61)" style="fill: #F9F665;"/><path d="M0 0 C4.62 0 9.24 0 14 0 C14 2.31 14 4.62 14 7 C9.38 7 4.76 7 0 7 C0 4.69 0 2.38 0 0 Z " transform="translate(207,40)" style="fill: #F9F665;"/><path d="M0 0 C4.62 0 9.24 0 14 0 C14 2.31 14 4.62 14 7 C9.38 7 4.76 7 0 7 C0 4.69 0 2.38 0 0 Z " transform="translate(179,40)" style="fill: #F9F665;"/><path d="M0 0 C4.62 0 9.24 0 14 0 C14 2.31 14 4.62 14 7 C9.38 7 4.76 7 0 7 C0 4.69 0 2.38 0 0 Z " transform="translate(151,40)" style="fill: #F9F665;"/><path d="M0 0 C2.31 0 4.62 0 7 0 C7 2.31 7 4.62 7 7 C4.69 7 2.38 7 0 7 C0 4.69 0 2.38 0 0 Z " transform="translate(116,250)" style="fill: #4A4A4A;"/><path d="M0 0 C2.31 0 4.62 0 7 0 C7 2.31 7 4.62 7 7 C4.69 7 2.38 7 0 7 C0 4.69 0 2.38 0 0 Z " transform="translate(137,243)" style="fill: #8900D3;"/><path d="M0 0 C2.31 0 4.62 0 7 0 C7 2.31 7 4.62 7 7 C4.69 7 2.38 7 0 7 C0 4.69 0 2.38 0 0 Z " transform="translate(123,243)" style="fill: #4A4A4A;"/><path d="M0 0 C2.31 0 4.62 0 7 0 C7 2.31 7 4.62 7 7 C4.69 7 2.38 7 0 7 C0 4.69 0 2.38 0 0 Z " transform="translate(144,236)" style="fill: #8900D3;"/><path d="M0 0 C2.31 0 4.62 0 7 0 C7 2.31 7 4.62 7 7 C4.69 7 2.38 7 0 7 C0 4.69 0 2.38 0 0 Z " transform="translate(207,229)" style="fill: #141414;"/><path d="M0 0 C2.31 0 4.62 0 7 0 C7 2.31 7 4.62 7 7 C4.69 7 2.38 7 0 7 C0 4.69 0 2.38 0 0 Z " transform="translate(172,222)" style="fill: #4A4A4A;"/><path d="M0 0 C2.31 0 4.62 0 7 0 C7 2.31 7 4.62 7 7 C4.69 7 2.38 7 0 7 C0 4.69 0 2.38 0 0 Z " transform="translate(235,215)" style="fill: #141414;"/><path d="M0 0 C2.31 0 4.62 0 7 0 C7 2.31 7 4.62 7 7 C4.69 7 2.38 7 0 7 C0 4.69 0 2.38 0 0 Z " transform="translate(18,215)" style="fill: #141414;"/><path d="M0 0 C2.31 0 4.62 0 7 0 C7 2.31 7 4.62 7 7 C4.69 7 2.38 7 0 7 C0 4.69 0 2.38 0 0 Z " transform="translate(95,201)" style="fill: #545454;"/><path d="M0 0 C2.31 0 4.62 0 7 0 C7 2.31 7 4.62 7 7 C4.69 7 2.38 7 0 7 C0 4.69 0 2.38 0 0 Z " transform="translate(193,194)" style="fill: #545454;"/><path d="M0 0 C2.31 0 4.62 0 7 0 C7 2.31 7 4.62 7 7 C4.69 7 2.38 7 0 7 C0 4.69 0 2.38 0 0 Z " transform="translate(95,194)" style="fill: #141414;"/><path d="M0 0 C2.31 0 4.62 0 7 0 C7 2.31 7 4.62 7 7 C4.69 7 2.38 7 0 7 C0 4.69 0 2.38 0 0 Z " transform="translate(74,194)" style="fill: #141414;"/><path d="M0 0 C2.31 0 4.62 0 7 0 C7 2.31 7 4.62 7 7 C4.69 7 2.38 7 0 7 C0 4.69 0 2.38 0 0 Z " transform="translate(81,187)" style="fill: #141414;"/><path d="M0 0 C2.31 0 4.62 0 7 0 C7 2.31 7 4.62 7 7 C4.69 7 2.38 7 0 7 C0 4.69 0 2.38 0 0 Z " transform="translate(74,187)" style="fill: #545454;"/><path d="M0 0 C2.31 0 4.62 0 7 0 C7 2.31 7 4.62 7 7 C4.69 7 2.38 7 0 7 C0 4.69 0 2.38 0 0 Z " transform="translate(74,180)" style="fill: #141414;"/><path d="M0 0 C2.31 0 4.62 0 7 0 C7 2.31 7 4.62 7 7 C4.69 7 2.38 7 0 7 C0 4.69 0 2.38 0 0 Z " transform="translate(67,166)" style="fill: #141414;"/><path d="M0 0 C2.31 0 4.62 0 7 0 C7 2.31 7 4.62 7 7 C4.69 7 2.38 7 0 7 C0 4.69 0 2.38 0 0 Z " transform="translate(60,152)" style="fill: #141414;"/><path d="M0 0 C2.31 0 4.62 0 7 0 C7 2.31 7 4.62 7 7 C4.69 7 2.38 7 0 7 C0 4.69 0 2.38 0 0 Z " transform="translate(186,145)" style="fill: #141414;"/><path d="M0 0 C2.31 0 4.62 0 7 0 C7 2.31 7 4.62 7 7 C4.69 7 2.38 7 0 7 C0 4.69 0 2.38 0 0 Z " transform="translate(186,138)" style="fill: #545454;"/><path d="M0 0 C2.31 0 4.62 0 7 0 C7 2.31 7 4.62 7 7 C4.69 7 2.38 7 0 7 C0 4.69 0 2.38 0 0 Z " transform="translate(60,124)" style="fill: #141414;"/><path d="M0 0 C2.31 0 4.62 0 7 0 C7 2.31 7 4.62 7 7 C4.69 7 2.38 7 0 7 C0 4.69 0 2.38 0 0 Z " transform="translate(67,110)" style="fill: #141414;"/><path d="M0 0 C2.31 0 4.62 0 7 0 C7 2.31 7 4.62 7 7 C4.69 7 2.38 7 0 7 C0 4.69 0 2.38 0 0 Z " transform="translate(53,103)" style="fill: #141415;"/><path d="M0 0 C2.31 0 4.62 0 7 0 C7 2.31 7 4.62 7 7 C4.69 7 2.38 7 0 7 C0 4.69 0 2.38 0 0 Z " transform="translate(60,96)" style="fill: #131313;"/><path d="M0 0 C2.31 0 4.62 0 7 0 C7 2.31 7 4.62 7 7 C4.69 7 2.38 7 0 7 C0 4.69 0 2.38 0 0 Z " transform="translate(81,82)" style="fill: #F9F666;"/><path d="M0 0 C2.31 0 4.62 0 7 0 C7 2.31 7 4.62 7 7 C4.69 7 2.38 7 0 7 C0 4.69 0 2.38 0 0 Z " transform="translate(109,68)" style="fill: #F9F665;"/><path d="M0 0 C2.31 0 4.62 0 7 0 C7 2.31 7 4.62 7 7 C4.69 7 2.38 7 0 7 C0 4.69 0 2.38 0 0 Z " transform="translate(200,26)" style="fill: #F9F665;"/><path d="M0 0 C2.31 0 4.62 0 7 0 C7 2.31 7 4.62 7 7 C4.69 7 2.38 7 0 7 C0 4.69 0 2.38 0 0 Z " transform="translate(165,26)" style="fill: #F9F665;"/><path d="M0 0 C2.31 0 4.62 0 7 0 C7 2.31 7 4.62 7 7 C4.69 7 2.38 7 0 7 C0 4.69 0 2.38 0 0 Z " transform="translate(130,26)" style="fill: #F9F665;"/><path d="M0 0 C2.31 0 4.62 0 7 0 C7 2.31 7 4.62 7 7 C4.69 7 2.38 7 0 7 C0 4.69 0 2.38 0 0 Z " transform="translate(193,19)" style="fill: #F9F665;"/><path d="M0 0 C2.31 0 4.62 0 7 0 C7 2.31 7 4.62 7 7 C4.69 7 2.38 7 0 7 C0 4.69 0 2.38 0 0 Z " transform="translate(158,19)" style="fill: #F9F665;"/><path d="M0 0 C2.31 0 4.62 0 7 0 C7 2.31 7 4.62 7 7 C4.69 7 2.38 7 0 7 C0 4.69 0 2.38 0 0 Z " transform="translate(123,19)" style="fill: #F9F665;"/></svg>